PathFileType	4	(X/Y/Z)	Walk4.trc
DataRate	CameraRate	NumFrames	NumMarkers	Units	OrigDataRate	OrigDataStartFrame	OrigNumFrames
200.000000	200.000000	6	58	mm	200.000000	330	662
Frame#	Times		RLFC		RBHD		RMT5		RToe		RTB2		RMT1		LACR1		LElbow		LUA1		LWRR		C7		LCAR		RCAL		RFA1		RCAR		RTH3		LLFC		LTH3		LPSI		LASI		LMMAL		RPSI		LTB2		LCAL		LMT5		RLMAL		RFHD		LTH2		RElbow		RWRR		RMFC		LElbowM		LTB1		LToe		RTH1		RTH4		LTH4		T10		LTH1		RBack		RWRU		LTB3		LTB4		LBHD		LWRU		RTB4		LLMAL		LMT1		RTB3		LMFC		RTB1		RASI		RTH2		LFHD		RACR1		RUA1		RMMAL		RElbowM
			X1	Y1	Z1	X2	Y2	Z2	X3	Y3	Z3	X4	Y4	Z4	X5	Y5	Z5	X6	Y6	Z6	X7	Y7	Z7	X8	Y8	Z8	X9	Y9	Z9	X10	Y10	Z10	X11	Y11	Z11	X12	Y12	Z12	X13	Y13	Z13	X14	Y14	Z14	X15	Y15	Z15	X16	Y16	Z16	X17	Y17	Z17	X18	Y18	Z18	X19	Y19	Z19	X20	Y20	Z20	X21	Y21	Z21	X22	Y22	Z22	X23	Y23	Z23	X24	Y24	Z24	X25	Y25	Z25	X26	Y26	Z26	X27	Y27	Z27	X28	Y28	Z28	X29	Y29	Z29	X30	Y30	Z30	X31	Y31	Z31	X32	Y32	Z32	X33	Y33	Z33	X34	Y34	Z34	X35	Y35	Z35	X36	Y36	Z36	X37	Y37	Z37	X38	Y38	Z38	X39	Y39	Z39	X40	Y40	Z40	X41	Y41	Z41	X42	Y42	Z42	X43	Y43	Z43	X44	Y44	Z44	X45	Y45	Z45	X46	Y46	Z46	X47	Y47	Z47	X48	Y48	Z48	X49	Y49	Z49	X50	Y50	Z50	X51	Y51	Z51	X52	Y52	Z52	X53	Y53	Z53	X54	Y54	Z54	X55	Y55	Z55	X56	Y56	Z56	X57	Y57	Z57	X58	Y58	Z58

330	1.65	-899.07	494.49	103.62	-846.76	1590.2	-82.602	-1005.4	22.216	93.317	-904.28	17.919	56.875	-964.32	262.23	81.598	-956.62	24.772	15.017	-792.73	1395.9	-188.47	-943.7	1086.3	-295.39	-869.02	1207.3	-263.43	-960.63	803.9	-290.07	-880.23	1462	-16.908	-967.75	947.17	-298.79	-1162.7	53.04	-12.427	-784.34	919.35	282.91	-668.93	804.86	259.01	-893.05	542.6	110.86	-713.06	513.04	-151.92	-721.57	570.19	-164.55	-973.21	1023.1	-65.298	-776.23	1008	-166.53	-543.48	94.647	-45.805	-982.7	1028.4	3.0151	-610.68	322.05	-143.96	-608.94	26.556	-75.308	-435.42	71.388	-136.6	-1104.6	82.55	48.218	-671.09	1629.4	-50.995	-698.17	680.58	-134.45	-846.28	1069.7	289.43	-685.13	847.55	209.03	-919.62	471.07	-22.317	-985.86	1090.6	-221.86	-622.23	414.92	-73.089	-377.63	125.43	-83.647	-879.85	727.48	152.37	-883.42	633.24	133.3	-748.58	659.56	-183.19	-959.08	1207.1	-16.523	-777.42	747.9	-197.18	-896.3	1351.6	138.86	-745.24	805.53	251.25	-572.66	236.2	-75.315	-598.34	325.36	-73.448	-847.31	1583.6	53.954	-896.68	769.2	-274.35	-954.41	261.01	8.43	-560.5	74.395	-125.79	-409.92	88.524	-61.864	-1000.1	185.52	4.0414	-715.57	485.17	-22.538	-905.72	345.87	14.345	-811.36	977.08	144.72	-817.1	634.99	98.987	-671.48	1627.1	23.684	-766.72	1407.4	135.78	-788.12	1230.8	231.45	-1073.8	77.182	-27.88	-851.78	1061.2	210.62
331	1.655	-895.39	493.78	103.43	-841.25	1589.4	-83.215	-1005.5	22.134	93.17	-904.26	17.882	56.85	-962.38	261.98	81.481	-956.62	24.771	15.172	-787.23	1395.1	-188.99	-938.55	1085.5	-295.68	-863.74	1206.5	-263.83	-955.69	803.14	-290.28	-874.78	1461.1	-17.476	-962.7	946.4	-299.05	-1162.5	54.297	-12.487	-779.08	918.73	282.54	-663.7	804.16	258.82	-889.03	541.86	110.72	-706.35	512.57	-151.44	-714.34	570.34	-164.16	-967.42	1022.2	-65.656	-770.52	1007.2	-166.88	-541.13	92.539	-45.187	-976.97	1027.6	2.6715	-605.76	320.69	-143.2	-607.55	25.857	-74.802	-433.85	68.487	-136.6	-1104.2	83.291	48.234	-665.61	1628.7	-51.492	-691.48	680.9	-134.23	-840.98	1069.1	288.91	-679.82	846.85	208.81	-915.73	470.39	-22.478	-980.6	1089.8	-222.1	-616.71	413.58	-72.329	-375.13	121.65	-83.591	-875	726.76	152.07	-878.98	632.5	133.06	-741.58	659.54	-183.15	-953.44	1206.2	-16.929	-770.67	747.78	-197.55	-890.9	1350.9	138.35	-739.98	804.86	250.92	-568.91	234.42	-74.538	-593.67	323.81	-72.677	-841.87	1582.8	53.346	-891.78	768.37	-274.56	-952.47	260.69	8.2804	-558.52	72.847	-125.27	-407.59	84.997	-62.011	-998.87	185.56	3.9589	-708.86	485	-21.929	-903.08	345.08	14.3	-805.66	976.23	144.43	-812.62	633.89	98.838	-666.04	1626.4	23.176	-761.28	1406.7	135.32	-782.72	1230.2	230.97	-1073.4	77.904	-27.952	-852.57	1061.3	210.75
332	1.66	-891.63	493.1	103.24	-835.73	1588.7	-83.841	-1005.7	22.056	93.012	-904.24	17.851	56.822	-960.39	261.78	81.371	-956.63	24.779	15.318	-781.72	1394.2	-189.53	-933.34	1084.7	-295.98	-858.39	1205.7	-264.23	-950.63	802.37	-290.51	-869.31	1460.4	-18.061	-957.56	945.62	-299.31	-1162.3	55.694	-12.543	-773.87	918.12	282.13	-658.55	803.46	258.62	-884.94	541.14	110.55	-699.69	512.13	-150.97	-707.19	570.47	-163.7	-961.62	1021.4	-65.989	-764.81	1006.4	-167.27	-538.94	90.426	-44.579	-971.22	1026.8	2.3448	-600.88	319.38	-142.43	-606.38	25.325	-74.323	-432.47	65.467	-136.59	-1103.8	84.154	48.256	-660.12	1628	-52.001	-684.7	681.19	-134.02	-835.71	1068.5	288.35	-674.57	846.15	208.57	-911.77	469.74	-22.64	-975.28	1089.1	-222.35	-611.25	412.26	-71.537	-372.76	117.68	-83.509	-870.11	726.06	151.75	-874.49	631.78	132.81	-734.6	659.53	-183.04	-947.79	1205.5	-17.338	-763.86	747.69	-197.81	-885.49	1350.3	137.82	-734.79	804.21	250.56	-565.26	232.66	-73.748	-589.07	322.28	-71.884	-836.42	1582.1	52.724	-886.75	767.53	-274.8	-950.48	260.44	8.1289	-556.69	71.35	-124.76	-405.41	81.342	-62.163	-997.55	185.68	3.8781	-702.21	484.85	-21.354	-900.37	344.33	14.278	-799.9	975.4	144.1	-808.08	632.83	98.672	-660.61	1625.7	22.657	-755.82	1406.1	134.84	-777.34	1229.6	230.47	-1073	78.705	-28	-852.78	1061.3	210.79
333	1.665	-887.76	492.45	103.03	-830.2	1588	-84.479	-1005.8	21.984	92.84	-904.25	17.824	56.793	-958.34	261.65	81.27	-956.64	24.798	15.448	-776.2	1393.4	-190.09	-928.04	1084	-296.27	-853	1204.9	-264.63	-945.45	801.6	-290.75	-863.82	1459.6	-18.664	-952.32	944.84	-299.6	-1162	57.251	-12.59	-768.72	917.54	281.7	-653.47	802.76	258.42	-880.74	540.45	110.35	-693.09	511.74	-150.52	-700.16	570.57	-163.19	-955.81	1020.7	-66.301	-759.1	1005.6	-167.68	-536.84	88.353	-43.985	-965.45	1026.1	2.0334	-596	318.14	-141.64	-605.36	24.983	-73.871	-431.21	62.376	-136.57	-1103.3	85.154	48.288	-654.63	1627.4	-52.521	-677.86	681.44	-133.82	-830.48	1068	287.75	-669.37	845.46	208.32	-907.72	469.11	-22.801	-969.89	1088.3	-222.6	-605.85	410.98	-70.729	-370.48	113.58	-83.383	-865.16	725.39	151.41	-869.92	631.08	132.53	-727.68	659.54	-182.84	-942.12	1204.7	-17.753	-757.02	747.63	-197.97	-880.07	1349.7	137.27	-729.67	803.58	250.18	-561.69	230.94	-72.955	-584.53	320.8	-71.08	-830.95	1581.5	52.088	-881.59	766.7	-275.07	-948.43	260.25	7.9783	-554.94	69.938	-124.28	-403.35	77.617	-62.303	-996.18	185.87	3.8021	-695.66	484.73	-20.833	-897.59	343.62	14.276	-794.05	974.59	143.71	-803.46	631.81	98.488	-655.17	1625.2	22.126	-750.34	1405.6	134.35	-771.99	1229	229.95	-1072.5	79.596	-28.016	-852.44	1061.3	210.74
334	1.67	-883.76	491.83	102.8	-824.66	1587.4	-85.129	-1005.9	21.923	92.655	-904.26	17.8	56.76	-956.21	261.6	81.185	-956.65	24.829	15.55	-770.67	1392.7	-190.66	-922.67	1083.2	-296.56	-847.54	1204.1	-265.03	-940.16	800.83	-291.02	-858.3	1458.9	-19.281	-946.98	944.06	-299.89	-1161.7	58.994	-12.621	-763.63	916.98	281.23	-648.47	802.07	258.2	-876.43	539.77	110.13	-686.58	511.38	-150.08	-693.29	570.64	-162.62	-949.99	1020	-66.592	-753.38	1004.9	-168.09	-534.8	86.358	-43.411	-959.66	1025.4	1.736	-591.12	316.98	-140.86	-604.44	24.839	-73.447	-430.02	59.265	-136.53	-1102.8	86.309	48.34	-649.13	1626.9	-53.053	-670.98	681.62	-133.65	-825.28	1067.4	287.1	-664.23	844.77	208.06	-903.57	468.52	-22.958	-964.42	1087.5	-222.85	-600.48	409.78	-69.921	-368.24	109.42	-83.2	-860.15	724.74	151.04	-865.25	630.42	132.24	-720.85	659.55	-182.57	-936.44	1204	-18.173	-750.2	747.58	-198.01	-874.63	1349.1	136.7	-724.64	802.96	249.78	-558.18	229.3	-72.172	-580.03	319.4	-70.281	-825.48	1580.9	51.441	-876.31	765.89	-275.38	-946.29	260.13	7.832	-553.22	68.636	-123.81	-401.36	73.881	-62.415	-994.74	186.16	3.7343	-689.23	484.63	-20.383	-894.7	342.96	14.288	-788.14	973.81	143.27	-798.76	630.84	98.288	-649.71	1624.6	21.585	-744.85	1405	133.84	-766.65	1228.5	229.4	-1072	80.593	-27.991	-851.57	1061.2	210.58
335	1.675	-879.6	491.22	102.57	-819.11	1586.8	-85.788	-1006.1	21.877	92.456	-904.3	17.777	56.723	-953.98	261.62	81.12	-956.65	24.871	15.615	-765.11	1392	-191.25	-917.21	1082.4	-296.85	-842.02	1203.4	-265.43	-934.76	800.06	-291.31	-852.77	1458.3	-19.912	-941.55	943.28	-300.18	-1161.3	60.947	-12.627	-758.61	916.45	280.74	-643.54	801.39	257.98	-871.96	539.12	109.88	-680.16	511.09	-149.68	-686.59	570.68	-162.01	-944.18	1019.4	-66.866	-747.66	1004.2	-168.49	-532.8	84.47	-42.866	-953.86	1024.7	1.4516	-586.22	315.93	-140.11	-603.55	24.889	-73.056	-428.86	56.18	-136.46	-1102.2	87.633	48.418	-643.62	1626.4	-53.595	-664.1	681.74	-133.5	-820.13	1066.9	286.41	-659.16	844.1	207.79	-899.28	467.95	-23.107	-958.87	1086.8	-223.09	-595.14	408.67	-69.129	-366.04	105.25	-82.948	-855.07	724.13	150.65	-860.48	629.78	131.93	-714.14	659.55	-182.23	-930.76	1203.4	-18.598	-743.42	747.54	-197.94	-869.18	1348.6	136.11	-719.68	802.37	249.35	-554.7	227.77	-71.41	-575.56	318.09	-69.499	-819.99	1580.3	50.783	-870.92	765.09	-275.71	-944.05	260.1	7.6939	-551.49	67.46	-123.37	-399.42	70.185	-62.487	-993.21	186.56	3.6788	-682.96	484.56	-20.014	-891.68	342.35	14.309	-782.16	973.07	142.79	-793.94	629.91	98.071	-644.25	1624.2	21.033	-739.34	1404.5	133.33	-761.33	1227.9	228.82	-1071.5	81.714	-27.92	-850.18	1061.1	210.34
